<?xml version="1.0" standalone="no"?><!DOCTYPE svg PUBLIC "-//W3C//DTD SVG 1.1//EN" "http://www.w3.org/Graphics/SVG/1.1/DTD/svg11.dtd"><svg t="1750772999395" class="icon" viewBox="0 0 1024 1024" version="1.1" xmlns="http://www.w3.org/2000/svg" p-id="1555" xmlns:xlink="http://www.w3.org/1999/xlink" width="200" height="200"><path d="M512.01216 0c8.64 0 16.64 4.672 20.864 12.16l62.72 109.76h264.96c6.848 0 13.376 2.944 17.92 8l2.944 4.16L951.18016 256a24.576 24.576 0 0 1 0 24.32l-62.72 109.696 68.928 120.768 63.36 110.912a24.384 24.384 0 0 1 0 24.32L951.05216 768a24.128 24.128 0 0 1-20.928 12.224h-125.44l-132.48 231.68a24.128 24.128 0 0 1-20.864 12.16H512.01216a24.128 24.128 0 0 1-20.928-12.16l-62.656-109.696H163.53216a23.936 23.936 0 0 1-20.864-12.288L72.90816 768a24.576 24.576 0 0 1 0-24.384l62.784-109.696-132.48-231.68a24.64 24.64 0 0 1-2.048-19.648l2.048-4.736L72.97216 256a24.128 24.128 0 0 1 20.864-12.16h125.44l69.056-120.768 63.36-110.912A23.936 23.936 0 0 1 372.62016 0H512.01216z m194.24 413.888l-262.272 463.232-27.84 0.128 82.88-146.368-183.04-316.864-83.2-144.192-139.264 0.256 280.448 485.888-139.2 0.64-68.928 121.728 278.08-1.152 69.888 121.728 276.48-488.192 70.08 121.472 138.88-0.64-126.016-218.368-167.04 0.704z m152.96-25.024l69.44-121.856-556.864 2.24 69.056-121.984L370.89216 26.112 233.10016 269.248l13.568-23.808 84.032 145.664L511.37216 390.4l185.6-0.832 23.04-0.128 139.2-0.512 0.256 0.512-0.32-0.64z" p-id="1556"></path></svg>